<svg width="100" height="60" viewBox="0 0 100 60" fill="none" xmlns="http://www.w3.org/2000/svg">
<path d="M100 22.2338C99.5601 22.4366 99.1387 22.7222 98.6757 22.8282C94.1795 23.8373 89.6786 24.8003 85.1824 25.8047C82.8255 26.33 80.4918 26.9428 78.1348 27.4773C74.7824 28.2421 71.4206 28.9839 68.0589 29.7119C63.3914 30.721 58.7331 31.7577 54.0517 32.6792C48.6618 33.7389 43.2487 34.6927 37.845 35.688C35.2797 36.1625 32.7098 36.6095 30.1445 37.0933C29.2878 37.2545 29.01 37.7614 29.2925 38.5446C30.6168 42.2077 32.506 45.5113 35.4232 48.1791C39.0813 51.5288 43.3506 53.4916 48.3238 53.9247C52.9496 54.3256 57.2791 53.3903 61.2706 51.045C64.5583 49.1144 67.2717 46.548 69.0498 43.1753C70.6612 40.125 71.6799 36.8537 71.8837 33.3703C71.9855 31.601 72.2078 31.3753 73.9905 31.366C75.1991 31.3614 76.1576 30.9974 76.7642 29.8962C76.8522 29.735 77.1208 29.5276 77.2365 29.5599C77.4032 29.606 77.6023 29.8548 77.6209 30.0345C77.7088 30.8546 77.8107 31.6886 77.7737 32.5087C77.3893 40.5582 74.1526 47.3405 68.221 52.7406C63.859 56.7169 58.5432 58.8594 52.644 59.3801C43.6886 60.168 36.0993 57.1546 29.8481 50.8238C26.8707 47.8105 24.8148 44.1797 23.5229 40.1389C22.9209 38.2498 22.8376 38.2221 20.865 38.5032C16.4429 39.139 12.0161 39.7426 7.58937 40.3462C5.25097 40.6641 2.91258 40.9544 0.57418 41.2539C0.421374 41.2723 0.259307 41.2585 0 41.0788C0.296351 40.8807 0.564919 40.6088 0.889053 40.5029C3.86183 39.5215 6.8948 38.6875 9.81663 37.5724C13.1691 36.2915 16.4151 34.7388 18.6331 31.7254C20.1334 29.6889 21.0826 27.3943 21.4901 24.9016C22.3977 19.3357 24.6388 14.3963 28.4127 10.1758C32.1819 5.95988 36.8077 3.11701 42.2671 1.57808C47.9765 -0.0299672 53.6118 0.177374 59.2193 2.05726C63.3173 3.42571 66.855 5.63274 69.9574 8.63227C73.0506 11.6226 75.5649 15.0276 77.9357 18.58C78.9961 20.1696 80.5983 21.1142 82.4458 21.6487C85.4325 22.5103 88.484 22.4688 91.5401 22.3352C93.647 22.243 95.7492 22.0634 97.8561 21.9482C98.5368 21.9113 99.2267 21.9436 99.912 21.9436C99.9444 22.0403 99.9722 22.1371 100 22.2338ZM29.1489 29.007C29.1489 29.3387 29.1443 29.6705 29.1489 30.0022C29.1767 31.5411 29.4823 31.8268 31.0104 31.5642C33.4969 31.1357 35.9743 30.6565 38.4608 30.1957C44.3786 29.0991 50.301 28.0025 56.2187 26.9059C60.2287 26.1641 64.2434 25.4361 68.2487 24.6805C69.5129 24.4409 69.8139 24.0584 69.4388 22.842C69.0406 21.5611 68.5729 20.2618 67.8876 19.1191C64.6277 13.673 59.8166 10.2127 53.5655 9.12989C47.2588 8.03329 41.4845 9.56761 36.5484 13.7421C31.83 17.7276 29.4499 22.8743 29.1489 29.007Z" fill="black"/>
</svg>
